<svg width="48" height="48" viewBox="0 0 48 48" fill="none" xmlns="http://www.w3.org/2000/svg">
<path fill-rule="evenodd" clip-rule="evenodd" d="M21.9472 0.0233794C18.566 0.361058 15.9242 1.11039 13.1201 2.52722C9.24924 4.48296 5.8624 7.59553 3.58381 11.2911C1.69115 14.3608 0.542684 17.6926 0.115769 21.3525C-0.0385898 22.6756 -0.0385898 25.3316 0.115769 26.6547C0.777871 32.3304 3.19649 37.2889 7.23641 41.2527C10.9568 44.903 15.6271 47.1668 20.9004 47.876C22.1345 48.0419 25.5768 48.0412 26.8007 47.8746C32.2351 47.1351 36.8336 44.8781 40.6559 41.0742C44.5393 37.2093 46.9147 32.3019 47.589 26.7505C47.6727 26.0624 47.7016 25.356 47.7016 24.0036C47.7016 21.989 47.6193 21.0656 47.2877 19.3579C45.8896 12.1591 41.2534 5.96859 34.7312 2.59168C32.3136 1.33998 29.7637 0.544909 26.8642 0.13875C26.1687 0.0413301 22.6048 -0.042291 21.9472 0.0233794ZM15.6125 16.4043C16.095 15.864 16.6889 15.531 17.5062 15.3424C18.0912 15.2075 19.7449 15.2594 20.2056 15.4272C21.2572 15.8103 21.8207 16.3819 22.2091 17.4592C22.4918 18.2434 22.6966 20.0747 22.5512 20.5183C22.4276 20.8954 22.2726 20.9373 20.9988 20.9373C19.5534 20.9373 19.6315 21.0023 19.6315 19.799C19.6315 18.4359 19.4671 18.0583 18.8314 17.9624C18.4464 17.9042 18.0289 18.0664 17.8632 18.3384C17.6685 18.6581 17.5827 19.2567 17.6122 20.09C17.6362 20.7659 17.6589 20.8865 17.833 21.261C18.1173 21.8728 18.5345 22.2526 19.4438 22.7273C20.3156 23.1825 20.8591 23.5768 21.3308 24.0964C22.1969 25.0506 22.6118 26.2409 22.6129 27.7743C22.6142 29.6043 22.2088 30.9371 21.4045 31.747C20.7722 32.3837 19.9627 32.6809 18.7074 32.7373C17.7927 32.7784 17.0814 32.6581 16.4784 32.3603C16.0131 32.1306 15.4095 31.5288 15.1731 31.0593C14.7703 30.2589 14.5526 29.1758 14.5352 27.8866C14.5244 27.0781 14.5251 27.0736 14.7001 26.8965C14.8752 26.7193 14.8798 26.7185 15.8645 26.6967C16.4083 26.6847 16.9524 26.6937 17.0735 26.7165C17.3874 26.7758 17.5011 27.0683 17.4458 27.6738C17.3908 28.2746 17.5001 29.187 17.6693 29.5387C17.8336 29.8805 18.0579 30.0085 18.4927 30.0085C18.9604 30.0085 19.2161 29.8655 19.3886 29.5074C19.5141 29.247 19.5351 29.086 19.5573 28.2136C19.5852 27.1226 19.5164 26.7239 19.2091 26.196C18.9343 25.7238 18.3239 25.2184 17.5032 24.7836C16.2519 24.1206 15.6373 23.5365 15.1246 22.5231C14.6918 21.6676 14.5883 21.1453 14.5952 19.8513C14.6004 18.8684 14.6206 18.6594 14.7625 18.1215C14.9635 17.3591 15.2168 16.8475 15.6125 16.4043ZM31.104 20.9692C31.4815 17.5344 32.4443 15.8876 34.3726 15.3786C34.9458 15.2273 36.1712 15.2115 36.7462 15.348C38.3616 15.7315 39.2529 17.0351 39.4912 19.3627C39.5966 20.3915 39.5588 20.788 39.3371 20.98C39.1706 21.1242 39.1286 21.1289 38.0049 21.1289C36.5078 21.1289 36.6146 21.2279 36.5687 19.7968C36.5298 18.5829 36.4276 18.2202 36.0722 18.0352C35.6356 17.8078 35.0348 17.9762 34.825 18.3847C34.538 18.9436 34.4163 20.6069 34.4163 23.9717C34.4163 27.4978 34.5313 28.9802 34.8544 29.6178C35.0768 30.0568 35.6723 30.1976 36.1036 29.913C36.4365 29.6934 36.5359 29.3154 36.5571 28.1878C36.5677 27.6257 36.6062 27.0891 36.6426 26.9956C36.7515 26.7158 36.9624 26.6733 38.1256 26.697L39.1829 26.7186L39.368 26.9272C39.5834 27.1701 39.6 27.4071 39.4833 28.576C39.201 31.4048 37.9435 32.7531 35.5877 32.7531C33.6051 32.7531 32.3254 31.7784 31.6654 29.7657C31.4019 28.962 31.2865 28.4222 31.1371 27.2924C30.9954 26.2216 30.9741 22.1508 31.104 20.9692ZM8.71916 15.6932L8.87492 15.5364C9.0301 15.3801 9.03492 15.3796 10.3311 15.3796C11.714 15.3796 11.8908 15.4109 12.0113 15.6771C12.0617 15.7886 12.0817 18.1598 12.0817 24.035V32.2372L11.7757 32.5957L10.5805 32.6157C9.25399 32.6381 9.02249 32.6136 8.8425 32.4324C8.72164 32.3107 8.71916 32.1436 8.71916 24.0007V15.6932ZM25.1512 15.6932L25.3069 15.5364C25.4621 15.3801 25.4669 15.3796 26.7631 15.3796C28.146 15.3796 28.3228 15.4109 28.4433 15.6771C28.4937 15.7886 28.5137 18.1598 28.5137 24.035V32.2372L28.2077 32.5957L27.0126 32.6157C25.686 32.6381 25.4545 32.6136 25.2745 32.4324C25.1536 32.3107 25.1512 32.1436 25.1512 24.0007V15.6932Z" fill="#40B8B8"/>
<path d="M8.87492 15.5364L8.71916 15.6932V24.0007C8.71916 32.1436 8.72164 32.3107 8.8425 32.4324C9.02249 32.6136 9.25399 32.6381 10.5805 32.6157L11.7757 32.5957L12.0817 32.2372V24.035C12.0817 18.1598 12.0617 15.7886 12.0113 15.6771C11.8908 15.4109 11.714 15.3796 10.3311 15.3796C9.03492 15.3796 9.0301 15.3801 8.87492 15.5364Z" fill="white"/>
<path d="M17.5062 15.3424C16.6889 15.531 16.095 15.864 15.6125 16.4043C15.2168 16.8475 14.9635 17.3591 14.7625 18.1215C14.6206 18.6594 14.6004 18.8684 14.5952 19.8513C14.5883 21.1453 14.6918 21.6676 15.1246 22.5231C15.6373 23.5365 16.2519 24.1206 17.5032 24.7836C18.3239 25.2184 18.9343 25.7238 19.2091 26.196C19.5164 26.7239 19.5852 27.1226 19.5573 28.2136C19.5351 29.086 19.5141 29.247 19.3886 29.5074C19.2161 29.8655 18.9604 30.0085 18.4927 30.0085C18.0579 30.0085 17.8336 29.8805 17.6693 29.5387C17.5001 29.187 17.3908 28.2746 17.4458 27.6738C17.5011 27.0683 17.3874 26.7758 17.0735 26.7165C16.9524 26.6937 16.4083 26.6847 15.8645 26.6967C14.8798 26.7185 14.8752 26.7193 14.7001 26.8965C14.5251 27.0736 14.5244 27.0781 14.5352 27.8866C14.5526 29.1758 14.7703 30.2589 15.1731 31.0593C15.4095 31.5288 16.0131 32.1306 16.4784 32.3603C17.0814 32.6581 17.7927 32.7784 18.7074 32.7373C19.9627 32.6809 20.7722 32.3837 21.4045 31.747C22.2088 30.9371 22.6142 29.6043 22.6129 27.7743C22.6118 26.2409 22.1969 25.0506 21.3308 24.0964C20.8591 23.5768 20.3156 23.1825 19.4438 22.7273C18.5345 22.2526 18.1173 21.8728 17.833 21.261C17.6589 20.8865 17.6362 20.7659 17.6122 20.09C17.5827 19.2567 17.6685 18.6581 17.8632 18.3384C18.0289 18.0664 18.4464 17.9042 18.8314 17.9624C19.4671 18.0583 19.6315 18.4359 19.6315 19.799C19.6315 21.0023 19.5534 20.9373 20.9988 20.9373C22.2726 20.9373 22.4276 20.8954 22.5512 20.5183C22.6966 20.0747 22.4918 18.2434 22.2091 17.4592C21.8207 16.3819 21.2572 15.8103 20.2056 15.4272C19.7449 15.2594 18.0912 15.2075 17.5062 15.3424Z" fill="white"/>
<path d="M25.3069 15.5364L25.1512 15.6932V24.0007C25.1512 32.1436 25.1536 32.3107 25.2745 32.4324C25.4545 32.6136 25.686 32.6381 27.0126 32.6157L28.2077 32.5957L28.5137 32.2372V24.035C28.5137 18.1598 28.4937 15.7886 28.4433 15.6771C28.3228 15.4109 28.146 15.3796 26.7631 15.3796C25.4669 15.3796 25.4621 15.3801 25.3069 15.5364Z" fill="white"/>
<path d="M34.3726 15.3786C32.4443 15.8876 31.4815 17.5344 31.104 20.9692C30.9741 22.1508 30.9954 26.2216 31.1371 27.2924C31.2865 28.4222 31.4019 28.962 31.6654 29.7657C32.3254 31.7784 33.6051 32.7531 35.5877 32.7531C37.9435 32.7531 39.201 31.4048 39.4833 28.576C39.6 27.4071 39.5834 27.1701 39.368 26.9272L39.1829 26.7186L38.1256 26.697C36.9624 26.6733 36.7515 26.7158 36.6426 26.9956C36.6062 27.0891 36.5677 27.6257 36.5571 28.1878C36.5359 29.3154 36.4365 29.6934 36.1036 29.913C35.6723 30.1976 35.0768 30.0568 34.8544 29.6178C34.5313 28.9802 34.4163 27.4978 34.4163 23.9717C34.4163 20.6069 34.538 18.9436 34.825 18.3847C35.0348 17.9762 35.6356 17.8078 36.0722 18.0352C36.4276 18.2202 36.5298 18.5829 36.5687 19.7968C36.6146 21.2279 36.5078 21.1289 38.0049 21.1289C39.1286 21.1289 39.1706 21.1242 39.3371 20.98C39.5588 20.788 39.5966 20.3915 39.4912 19.3627C39.2529 17.0351 38.3616 15.7315 36.7462 15.348C36.1712 15.2115 34.9458 15.2273 34.3726 15.3786Z" fill="white"/>
</svg>
