<svg width="120" height="48" viewBox="0 0 120 48" fill="none" xmlns="http://www.w3.org/2000/svg">
<path fill-rule="evenodd" clip-rule="evenodd" d="M21.9472 0.0233794C18.566 0.361058 15.9242 1.11039 13.1201 2.52722C9.24924 4.48296 5.8624 7.59553 3.58381 11.2911C1.69115 14.3609 0.542684 17.6926 0.115769 21.3525C-0.0385898 22.6756 -0.0385898 25.3316 0.115769 26.6547C0.777871 32.3304 3.19649 37.2889 7.23641 41.2527C10.9568 44.903 15.6271 47.1668 20.9004 47.876C22.1345 48.0419 25.5768 48.0412 26.8007 47.8746C32.2351 47.1351 36.8336 44.8781 40.6559 41.0742C44.5393 37.2093 46.9147 32.3019 47.589 26.7505C47.6726 26.0624 47.7016 25.356 47.7016 24.0036C47.7016 21.989 47.6193 21.0656 47.2877 19.3579C45.8896 12.1591 41.2534 5.96859 34.7312 2.59168C32.3136 1.33998 29.7637 0.544909 26.8642 0.13875C26.1687 0.0413301 22.6048 -0.042291 21.9472 0.0233794ZM15.6125 16.4043C16.095 15.864 16.6889 15.531 17.5062 15.3424C18.0912 15.2075 19.7449 15.2594 20.2056 15.4272C21.2572 15.8103 21.8207 16.3819 22.2091 17.4592C22.4918 18.2434 22.6966 20.0747 22.5512 20.5183C22.4276 20.8954 22.2726 20.9373 20.9988 20.9373C19.5534 20.9373 19.6315 21.0023 19.6315 19.799C19.6315 18.4359 19.4671 18.0583 18.8314 17.9624C18.4464 17.9042 18.0289 18.0664 17.8632 18.3384C17.6685 18.6581 17.5827 19.2567 17.6122 20.09C17.6362 20.7659 17.6589 20.8865 17.833 21.261C18.1173 21.8728 18.5345 22.2526 19.4438 22.7273C20.3156 23.1825 20.8591 23.5768 21.3308 24.0964C22.1969 25.0506 22.6118 26.2409 22.6129 27.7743C22.6142 29.6043 22.2088 30.9371 21.4045 31.747C20.7722 32.3837 19.9627 32.6809 18.7074 32.7373C17.7927 32.7784 17.0814 32.6582 16.4784 32.3603C16.0131 32.1306 15.4095 31.5288 15.1731 31.0593C14.7703 30.2589 14.5526 29.1758 14.5352 27.8866C14.5244 27.0781 14.5251 27.0736 14.7001 26.8965C14.8752 26.7193 14.8798 26.7185 15.8645 26.6967C16.4083 26.6847 16.9524 26.6937 17.0735 26.7165C17.3874 26.7758 17.5011 27.0683 17.4458 27.6738C17.3908 28.2746 17.5001 29.187 17.6693 29.5387C17.8336 29.8805 18.0579 30.0085 18.4927 30.0085C18.9604 30.0085 19.2161 29.8655 19.3886 29.5074C19.5141 29.247 19.5351 29.086 19.5573 28.2136C19.5852 27.1226 19.5164 26.7239 19.2091 26.196C18.9343 25.7238 18.3239 25.2184 17.5032 24.7836C16.2519 24.1206 15.6373 23.5365 15.1246 22.5231C14.6918 21.6676 14.5883 21.1453 14.5952 19.8513C14.6004 18.8684 14.6206 18.6594 14.7625 18.1215C14.9635 17.3591 15.2168 16.8475 15.6125 16.4043ZM31.104 20.9692C31.4815 17.5344 32.4443 15.8876 34.3726 15.3786C34.9458 15.2273 36.1712 15.2115 36.7462 15.348C38.3616 15.7315 39.2529 17.0351 39.4912 19.3627C39.5966 20.3915 39.5588 20.788 39.3371 20.98C39.1706 21.1242 39.1286 21.1289 38.0049 21.1289C36.5078 21.1289 36.6146 21.2279 36.5687 19.7968C36.5298 18.5829 36.4276 18.2202 36.0722 18.0352C35.6356 17.8078 35.0348 17.9762 34.825 18.3847C34.538 18.9436 34.4163 20.6069 34.4163 23.9717C34.4163 27.4978 34.5313 28.9802 34.8544 29.6178C35.0768 30.0568 35.6723 30.1976 36.1036 29.913C36.4365 29.6934 36.5359 29.3154 36.5571 28.1878C36.5677 27.6257 36.6062 27.0891 36.6426 26.9956C36.7515 26.7158 36.9624 26.6733 38.1256 26.697L39.1829 26.7186L39.368 26.9272C39.5834 27.1701 39.6 27.4071 39.4833 28.576C39.201 31.4048 37.9435 32.7532 35.5877 32.7532C33.6051 32.7532 32.3254 31.7784 31.6654 29.7657C31.4019 28.962 31.2865 28.4222 31.1371 27.2924C30.9954 26.2216 30.9741 22.1508 31.104 20.9692ZM8.71916 15.6932L8.87492 15.5364C9.0301 15.3801 9.03492 15.3796 10.3311 15.3796C11.714 15.3796 11.8908 15.4109 12.0113 15.6771C12.0617 15.7886 12.0817 18.1598 12.0817 24.035V32.2372L11.7757 32.5957L10.5805 32.6157C9.25399 32.6381 9.02249 32.6136 8.8425 32.4324C8.72163 32.3107 8.71916 32.1436 8.71916 24.0007V15.6932ZM25.1512 15.6932L25.3069 15.5364C25.4621 15.3801 25.4669 15.3796 26.7631 15.3796C28.146 15.3796 28.3228 15.4109 28.4433 15.6771C28.4937 15.7886 28.5137 18.1598 28.5137 24.035V32.2372L28.2077 32.5957L27.0126 32.6157C25.686 32.6381 25.4545 32.6136 25.2745 32.4324C25.1536 32.3107 25.1512 32.1436 25.1512 24.0007V15.6932Z" fill="#40B8B8"/>
<path d="M8.87492 15.5364L8.71916 15.6932V24.0007C8.71916 32.1436 8.72163 32.3107 8.8425 32.4324C9.02249 32.6136 9.25399 32.6381 10.5805 32.6157L11.7757 32.5957L12.0817 32.2372V24.035C12.0817 18.1598 12.0617 15.7886 12.0113 15.6771C11.8908 15.4109 11.714 15.3796 10.3311 15.3796C9.03492 15.3796 9.0301 15.3801 8.87492 15.5364Z" fill="white"/>
<path d="M17.5062 15.3424C16.6889 15.531 16.095 15.864 15.6125 16.4043C15.2168 16.8475 14.9635 17.3591 14.7625 18.1215C14.6206 18.6594 14.6004 18.8684 14.5952 19.8513C14.5883 21.1453 14.6918 21.6676 15.1246 22.5231C15.6373 23.5365 16.2519 24.1206 17.5032 24.7836C18.3239 25.2184 18.9343 25.7238 19.2091 26.196C19.5164 26.7239 19.5852 27.1226 19.5573 28.2136C19.5351 29.086 19.5141 29.247 19.3886 29.5074C19.2161 29.8655 18.9604 30.0085 18.4927 30.0085C18.0579 30.0085 17.8336 29.8805 17.6693 29.5387C17.5001 29.187 17.3908 28.2746 17.4458 27.6738C17.5011 27.0683 17.3874 26.7758 17.0735 26.7165C16.9524 26.6937 16.4083 26.6847 15.8645 26.6967C14.8798 26.7185 14.8752 26.7193 14.7001 26.8965C14.5251 27.0736 14.5244 27.0781 14.5352 27.8866C14.5526 29.1758 14.7703 30.2589 15.1731 31.0593C15.4095 31.5288 16.0131 32.1306 16.4784 32.3603C17.0814 32.6582 17.7927 32.7784 18.7074 32.7373C19.9627 32.6809 20.7722 32.3837 21.4045 31.747C22.2088 30.9371 22.6142 29.6043 22.6129 27.7743C22.6118 26.2409 22.1969 25.0506 21.3308 24.0964C20.8591 23.5768 20.3156 23.1825 19.4438 22.7273C18.5345 22.2526 18.1173 21.8728 17.833 21.261C17.6589 20.8865 17.6362 20.7659 17.6122 20.09C17.5827 19.2567 17.6685 18.6581 17.8632 18.3384C18.0289 18.0664 18.4464 17.9042 18.8314 17.9624C19.4671 18.0583 19.6315 18.4359 19.6315 19.799C19.6315 21.0023 19.5534 20.9373 20.9988 20.9373C22.2726 20.9373 22.4276 20.8954 22.5512 20.5183C22.6966 20.0747 22.4918 18.2434 22.2091 17.4592C21.8207 16.3819 21.2572 15.8103 20.2056 15.4272C19.7449 15.2594 18.0912 15.2075 17.5062 15.3424Z" fill="white"/>
<path d="M25.3069 15.5364L25.1512 15.6932V24.0007C25.1512 32.1436 25.1536 32.3107 25.2745 32.4324C25.4545 32.6136 25.686 32.6381 27.0126 32.6157L28.2077 32.5957L28.5137 32.2372V24.035C28.5137 18.1598 28.4937 15.7886 28.4433 15.6771C28.3228 15.4109 28.146 15.3796 26.7631 15.3796C25.4669 15.3796 25.4621 15.3801 25.3069 15.5364Z" fill="white"/>
<path d="M34.3726 15.3786C32.4443 15.8876 31.4815 17.5344 31.104 20.9692C30.9741 22.1508 30.9954 26.2216 31.1371 27.2924C31.2865 28.4222 31.4019 28.962 31.6654 29.7657C32.3254 31.7784 33.6051 32.7532 35.5877 32.7532C37.9435 32.7532 39.201 31.4048 39.4833 28.576C39.6 27.4071 39.5834 27.1701 39.368 26.9272L39.1829 26.7186L38.1256 26.697C36.9624 26.6733 36.7515 26.7158 36.6426 26.9956C36.6062 27.0891 36.5677 27.6257 36.5571 28.1878C36.5359 29.3154 36.4365 29.6934 36.1036 29.913C35.6723 30.1976 35.0768 30.0568 34.8544 29.6178C34.5313 28.9802 34.4163 27.4978 34.4163 23.9717C34.4163 20.6069 34.538 18.9436 34.825 18.3847C35.0348 17.9762 35.6356 17.8078 36.0722 18.0352C36.4276 18.2202 36.5298 18.5829 36.5687 19.7968C36.6146 21.2279 36.5078 21.1289 38.0049 21.1289C39.1286 21.1289 39.1706 21.1242 39.3371 20.98C39.5588 20.788 39.5966 20.3915 39.4912 19.3627C39.2529 17.0351 38.3616 15.7315 36.7462 15.348C36.1712 15.2115 34.9458 15.2273 34.3726 15.3786Z" fill="white"/>
<path fill-rule="evenodd" clip-rule="evenodd" d="M52.0988 17.7207C52.537 16.381 53.4982 15.554 54.8914 15.3178C55.3989 15.2317 56.5596 15.2481 57.0318 15.3479C58.3467 15.6259 59.1722 16.4629 59.5329 17.884C59.6853 18.484 59.7912 19.3605 59.7914 20.0234C59.7916 20.4846 59.7734 20.5682 59.6386 20.7261L59.4856 20.9053L58.3222 20.9247C57.3761 20.9404 57.1349 20.9265 57.0318 20.8501C56.917 20.7651 56.9017 20.6603 56.8711 19.7448C56.8417 18.8675 56.8182 18.6939 56.6938 18.4358C56.472 17.9759 55.9664 17.8074 55.4543 18.0229C55.0146 18.2079 54.8646 18.5645 54.8015 19.5743C54.7036 21.1412 55.1963 21.9896 56.6322 22.7271C57.4995 23.1725 57.9672 23.5137 58.5045 24.093C58.9903 24.6168 59.37 25.2806 59.6041 26.0159C59.7218 26.3853 59.7518 26.6545 59.7762 27.564C59.8081 28.7453 59.7139 29.595 59.4729 30.3004C59.0539 31.5265 58.2195 32.31 57.0159 32.6075C56.4607 32.7448 54.9572 32.7606 54.4623 32.6344C52.7129 32.1885 51.8827 30.8136 51.7543 28.1498C51.7214 27.4676 51.6992 27.1179 51.8608 26.9387C52.0355 26.7449 52.4253 26.7505 53.2491 26.7505C54.2844 26.7505 54.4586 26.7648 54.5339 26.8558C54.5967 26.9319 54.6309 27.2656 54.6568 28.0536C54.6947 29.2065 54.7582 29.49 55.0481 29.8007C55.2498 30.017 55.6175 30.0972 55.9922 30.0067C56.3438 29.9218 56.5732 29.6946 56.686 29.3197C56.7962 28.9537 56.8377 27.4814 56.75 27.0557C56.5654 26.1605 55.9943 25.4674 55.0266 24.9642C53.5014 24.1711 52.7532 23.4559 52.2265 22.2875C51.7028 21.1258 51.6463 19.1039 52.0988 17.7207ZM60.6798 16.7583C60.6798 15.5953 60.6936 15.5372 60.997 15.4249C61.1952 15.3515 68.7894 15.3771 68.952 15.4517C69.213 15.5715 69.2557 15.7877 69.2335 16.879C69.2206 17.5129 69.2349 17.8258 69.0876 17.9798C68.9267 18.148 68.5728 18.1265 67.7796 18.1265H66.6457L66.6118 32.3195L66.4621 32.4416C66.3248 32.5535 66.1963 32.5637 64.9235 32.5637C63.6194 32.5637 63.5271 32.5559 63.4079 32.436C63.2825 32.3097 63.281 32.223 63.281 25.2173V18.1265H62.1476C61.097 18.1265 61.0019 18.1168 60.847 17.994L60.6798 17.8617V16.7583ZM70.6415 15.6332C70.6804 15.56 70.7747 15.4748 70.8509 15.4439C70.9271 15.413 71.566 15.3858 72.2707 15.3836C73.5362 15.3796 73.5541 15.3815 73.7299 15.5337L73.9079 15.6878L73.9419 22.2572C73.9729 28.2406 73.9858 28.8601 74.0859 29.2018C74.2828 29.8737 74.4799 30.0403 75.0676 30.032C75.5629 30.0249 75.7644 29.8343 75.9522 29.1956C76.0508 28.8601 76.0623 28.2383 76.0797 22.3427C76.0925 18.0002 76.1208 15.8034 76.1655 15.6913C76.2763 15.4134 76.4516 15.3796 77.7841 15.3796C79.1222 15.3796 79.3577 15.4279 79.4299 15.7174C79.4496 15.7966 79.4554 18.6348 79.4429 22.0246C79.4178 28.8107 79.4166 28.8321 79.0122 30.1033C78.5955 31.4133 77.8972 32.1707 76.7629 32.5432C76.0776 32.7683 74.56 32.8283 73.7415 32.6627C72.0169 32.3138 71.167 31.2544 70.7191 28.8954C70.6362 28.4582 70.6174 27.4174 70.596 22.0729C70.5778 17.5135 70.5904 15.7294 70.6415 15.6332ZM81.8384 15.6879L82.2055 15.37L84.528 15.3953C87.0352 15.4226 87.211 15.4435 87.9447 15.8013C88.9379 16.2858 89.6988 17.3641 90.1488 18.925C90.521 20.2161 90.6892 21.7858 90.6882 23.9591C90.6864 27.8694 90.0892 30.2497 88.7839 31.5492C88.5185 31.8134 88.2073 32.0464 87.9538 32.1706C87.1902 32.5448 87.0225 32.5637 84.465 32.5637C82.2684 32.5637 82.1295 32.5569 81.9882 32.4416L81.8384 32.3195V15.6879ZM92.7861 15.6907C92.824 15.5984 92.9172 15.4925 92.9932 15.4555C93.0834 15.4116 94.1369 15.3867 96.0254 15.3839C98.8605 15.3796 98.9229 15.3822 99.0866 15.512L99.2538 15.6443V16.7552C99.2538 17.4499 99.2867 17.795 99.1323 17.9654C98.9551 18.1609 98.5313 18.1265 97.5279 18.1265H96.0798L96.1133 22.183L97.3716 22.2149C98.5234 22.2442 98.6374 22.2573 98.7198 22.3708C98.7889 22.4662 98.8097 22.7429 98.8097 23.5686C98.8097 24.2594 98.8371 24.5932 98.6858 24.7536C98.5229 24.9262 98.153 24.8979 97.3187 24.8979H96.0816V29.8807H97.5655C98.6223 29.8807 99.0545 29.8479 99.2336 30.048C99.3815 30.2134 99.3568 30.5376 99.3689 31.1707C99.3877 32.1585 99.3813 32.2262 99.2533 32.3902L99.1177 32.5637H96.0551C93.0222 32.5637 92.9913 32.5624 92.8716 32.4293C92.7543 32.2987 92.7503 32.0559 92.734 24.0767C92.7222 18.2765 92.7375 15.8093 92.7861 15.6907ZM101.164 15.6765C101.203 15.5906 101.296 15.4906 101.371 15.4543C101.562 15.3608 103.709 15.3597 103.912 15.453C104.01 15.4979 104.11 15.6278 104.169 15.7883C104.304 16.1564 106.458 23.8782 106.674 24.7702C106.793 25.2635 106.88 25.5048 106.939 25.5048C106.986 25.5048 107.014 25.4617 106.999 25.409C106.984 25.3563 106.96 23.1922 106.944 20.5999C106.924 17.0775 106.936 15.8408 106.991 15.7053C107.11 15.4178 107.282 15.3796 108.459 15.3796C109.627 15.3796 109.861 15.4322 109.935 15.7124C109.957 15.7928 109.975 19.5416 109.975 24.0429C109.976 32.2266 109.976 32.2271 109.844 32.3954L109.713 32.5637H108.427C107.242 32.5637 107.132 32.5541 107.031 32.442C106.925 32.3237 104.76 24.7306 104.416 23.2689C104.237 22.5063 104.217 22.4173 104.179 22.4076C104.172 22.4059 104.165 22.4065 104.156 22.4065C104.129 22.4065 104.117 24.6129 104.129 27.3095L104.152 32.2124L103.876 32.5637H101.357L101.225 32.3954C101.094 32.2271 101.094 32.226 101.094 24.0299C101.094 18.1416 101.114 15.7887 101.164 15.6765ZM111.383 16.879C111.361 15.8069 111.404 15.5737 111.646 15.4547C111.74 15.4084 113.042 15.3907 115.727 15.3991C119.506 15.411 119.675 15.4165 119.803 15.5332C119.929 15.6479 119.937 15.7177 119.937 16.7583V17.8617L119.769 17.994C119.614 18.1168 119.519 18.1265 118.469 18.1265H117.335V25.2173C117.335 32.223 117.334 32.3097 117.208 32.436C117.089 32.5559 116.997 32.5637 115.693 32.5637C114.42 32.5637 114.292 32.5535 114.154 32.4416L114.005 32.3195L113.971 18.1265H112.837C112.044 18.1265 111.69 18.148 111.529 17.9798C111.382 17.8258 111.396 17.5129 111.383 16.879ZM85.2009 30.0404L85.1686 17.9348L85.5654 17.9362C86.5284 17.9396 86.9234 18.4463 87.1729 19.9987C87.311 20.8579 87.3759 25.6178 87.2679 26.9652C87.1312 28.6701 86.862 29.5316 86.3617 29.865C86.1692 29.9933 86.0388 30.0244 85.6629 30.0316L85.2009 30.0404Z" fill="#40B8B8"/>
<path d="M97.284 36.696C97.5574 35.6194 98.0567 35.0276 98.8304 34.8626C99.1692 34.7903 99.776 34.8232 100.142 34.9335C100.325 34.9888 100.534 35.126 100.724 35.3167C101.083 35.6771 101.277 36.2215 101.33 37.0204C101.379 37.7495 101.329 37.802 100.584 37.802C99.8888 37.802 99.8641 37.7771 99.8516 37.0624C99.8393 36.3611 99.7399 36.1897 99.3611 36.2174C99.1217 36.235 99.0825 36.2624 98.9683 36.4925C98.8481 36.7346 98.8414 36.8756 98.8416 39.1755C98.8417 41.8468 98.8662 42.0525 99.1974 42.1697C99.6488 42.3293 99.8391 42.0514 99.855 41.2091C99.8624 40.8168 99.8904 40.6506 99.9561 40.6087C100.006 40.5769 100.295 40.5505 100.597 40.5499C101.346 40.5486 101.376 40.581 101.328 41.3447C101.234 42.833 100.626 43.5597 99.4623 43.5763C98.793 43.5858 98.4286 43.4682 98.0415 43.1178C97.4585 42.59 97.207 41.8151 97.0889 40.1823C97.0052 39.025 97.0936 37.4458 97.284 36.696Z" fill="#006666"/>
<path d="M51.7342 39.1415C51.7342 35.2623 51.7413 34.9934 51.8453 34.9325C52.0308 34.8237 53.1416 34.8468 53.3062 34.9629L53.4472 35.0623V39.1983C53.4472 42.3299 53.4288 43.3528 53.3711 43.4108C53.3206 43.4617 53.0455 43.4875 52.5531 43.4875C51.9352 43.4875 51.8048 43.4706 51.7727 43.3864C51.7516 43.3309 51.7342 41.4207 51.7342 39.1415Z" fill="#006666"/>
<path d="M61.8853 35.0623L62.0263 34.9629C62.1434 34.8803 62.4015 34.8635 63.5531 34.8635C64.3871 34.8635 64.9878 34.8898 65.0617 34.9296C65.1686 34.9873 65.1844 35.0674 65.1844 35.5556C65.1844 35.906 65.1559 36.1442 65.1082 36.1922C65.058 36.2428 64.7882 36.2689 64.3152 36.2689H63.5983V38.3131H64.2305C64.9776 38.3131 64.994 38.3275 64.994 38.9838C64.994 39.6402 64.9776 39.6546 64.2305 39.6546H63.5983V42.146H64.3469C64.8446 42.146 65.1211 42.1717 65.1717 42.2226C65.2184 42.2697 65.2478 42.4994 65.2478 42.8167C65.2478 43.134 65.2184 43.3638 65.1717 43.4108C65.0635 43.5198 62.0696 43.5198 61.9614 43.4108C61.9037 43.3528 61.8853 42.3299 61.8853 39.1983V35.0623Z" fill="#006666"/>
<path d="M66.9608 39.1797C66.9608 35.2042 66.9635 35.1163 67.0877 34.9912C67.1954 34.8828 67.2991 34.8635 67.7735 34.8635C68.1234 34.8635 68.3708 34.8933 68.4352 34.9433C68.4993 34.9931 68.7804 35.9012 69.1815 37.3549C69.5355 38.6373 69.8459 39.7559 69.8715 39.8407C69.897 39.9255 69.9056 38.9014 69.8906 37.5649C69.869 35.6361 69.8363 35.0778 70.0683 34.9203C70.1855 34.8407 70.3702 34.8635 70.6581 34.8635C71.0308 34.8635 71.2243 34.8923 71.3243 34.9629L71.4653 35.0623V39.1983C71.4653 42.3299 71.4469 43.3528 71.3892 43.4108C71.3395 43.4609 71.0779 43.4875 70.6356 43.4875H69.9581L69.8893 43.3118C69.7884 43.0539 68.6105 38.8048 68.6094 38.6945C68.6088 38.6428 68.5871 38.5668 68.5609 38.5254C68.5348 38.484 68.5243 39.5408 68.5374 40.8736C68.5558 42.7339 68.5432 43.3192 68.483 43.3923C68.4227 43.4654 68.2522 43.4875 67.7483 43.4875C67.1645 43.4875 67.0849 43.4739 67.0265 43.3639C66.9832 43.2825 66.9608 41.8567 66.9608 39.1797Z" fill="#006666"/>
<path d="M73.0647 35.6311C73.0491 35.1166 73.0629 35.0131 73.1562 34.9443C73.239 34.8833 73.7348 34.8635 75.1748 34.8635C76.7172 34.8635 77.1762 34.8482 77.3112 35.0528C77.3775 35.1534 77.3656 35.3072 77.3656 35.542C77.3656 36.2555 77.3522 36.2689 76.6343 36.2689H76.0344L76.0016 43.4556L75.2493 43.4736C74.7488 43.4856 74.4674 43.467 74.4086 43.4179C74.3351 43.3565 74.3203 42.7513 74.3203 39.8088V36.2735L73.0832 36.2369L73.0647 35.6311Z" fill="#006666"/>
<path d="M78.967 39.2394C78.9517 35.3324 78.9583 35.0173 79.0584 34.9433C79.1274 34.8923 79.3906 34.8635 79.7886 34.8635C80.0868 34.8635 80.2846 34.8179 80.4154 34.8927C80.7121 35.0624 80.6647 35.8512 80.6647 39.1952C80.6647 42.3748 80.6471 43.2957 80.5847 43.3816C80.5152 43.4773 80.4041 43.4894 79.7441 43.4737L78.9835 43.4556L78.967 39.2394Z" fill="#006666"/>
<path d="M82.2641 35.6311C82.2485 35.1166 82.2622 35.0131 82.3556 34.9443C82.4385 34.8833 82.937 34.8635 84.3883 34.8635C85.9065 34.8635 86.3682 34.8479 86.5071 35.055C86.5773 35.1597 86.565 35.3212 86.565 35.5704C86.565 36.2527 86.5481 36.2689 85.8332 36.2689H85.2327V39.7771C85.2327 41.7067 85.2154 43.3309 85.1942 43.3864C85.1621 43.4706 85.0318 43.4875 84.4138 43.4875C83.9214 43.4875 83.6463 43.4617 83.5958 43.4108C83.5385 43.3531 83.5197 42.4645 83.5197 39.8038V36.2735L82.2825 36.2369L82.2641 35.6311Z" fill="#006666"/>
<path d="M87.5529 35.104L87.7004 34.9838C87.909 34.8137 88.959 34.8076 89.1577 34.9753C89.2621 35.0633 89.3573 35.3923 89.6062 36.5244C89.78 37.3149 89.9414 38.1126 89.9648 38.2971C89.9882 38.4816 90.0285 38.6325 90.0544 38.6325C90.0803 38.6325 90.121 38.4816 90.1449 38.2971C90.1688 38.1126 90.3318 37.3149 90.5072 36.5244C90.7519 35.4221 90.8562 35.061 90.9549 34.9753C91.0562 34.8872 91.2002 34.8637 91.6317 34.8644C92.289 34.8654 92.4488 34.902 92.4996 35.0634C92.5225 35.1358 92.2071 36.2314 91.7248 37.7555L90.9114 40.3254L90.8475 43.4556H89.2614L89.1979 40.3254L87.5529 35.104Z" fill="#006666"/>
<path fill-rule="evenodd" clip-rule="evenodd" d="M55.6478 34.9565C55.5497 35.0554 55.5409 35.405 55.5418 39.196C55.5424 41.4685 55.5668 43.3658 55.596 43.4123C55.6381 43.4791 55.9336 43.4925 57.0119 43.4762L58.3745 43.4556L58.6854 43.2619C59.5575 42.7186 59.9061 41.7078 59.9633 39.5561C60.0338 36.9077 59.5878 35.5294 58.5054 35.0507C58.2072 34.9188 58.0522 34.9012 56.9643 34.8764C55.8914 34.8519 55.7427 34.861 55.6478 34.9565ZM57.2539 42.2099V36.205H57.502C57.6987 36.205 57.7827 36.2439 57.9071 36.3929C58.1963 36.7388 58.2372 37.092 58.2372 39.2394C58.2372 40.949 58.222 41.2693 58.1256 41.5828C57.9957 42.0057 57.7813 42.2099 57.4674 42.2099H57.2539Z" fill="#006666"/>
<path fill-rule="evenodd" clip-rule="evenodd" d="M104.122 34.9433C104.045 35.0024 103.81 36.084 103.219 39.1024C102.779 41.346 102.428 43.2433 102.438 43.3186C102.457 43.4485 102.496 43.4565 103.198 43.4735C103.862 43.4896 103.942 43.4797 103.973 43.3777C104.004 43.2769 104.266 41.6351 104.266 41.5434C104.266 41.5235 104.551 41.5072 104.9 41.5072C105.249 41.5072 105.535 41.5235 105.535 41.5434C105.535 41.6351 105.796 43.2769 105.827 43.3777C105.858 43.4797 105.938 43.4896 106.602 43.4735C107.304 43.4565 107.344 43.4484 107.362 43.3189C107.373 43.2437 107.022 41.3464 106.583 39.1027C105.987 36.0618 105.757 35.0029 105.679 34.9433C105.61 34.8911 105.341 34.8635 104.9 34.8635C104.459 34.8635 104.191 34.8911 104.122 34.9433ZM104.58 39.431C104.649 39.0094 104.738 38.3266 104.78 37.9138C104.822 37.501 104.877 37.1632 104.902 37.1632C104.928 37.1632 104.968 37.3573 104.992 37.5944C105.015 37.8315 105.104 38.5192 105.19 39.1225C105.275 39.7258 105.344 40.2505 105.344 40.2884C105.344 40.3311 105.176 40.3573 104.9 40.3573C104.587 40.3573 104.456 40.3337 104.456 40.2774C104.456 40.2336 104.512 39.8526 104.58 39.431Z" fill="#006666"/>
<path fill-rule="evenodd" clip-rule="evenodd" d="M109.165 34.9629L109.024 35.0623V39.2032C109.024 42.663 109.039 43.3562 109.113 43.4179C109.171 43.467 109.453 43.4856 109.953 43.4736L110.705 43.4556L110.739 40.1018L110.913 40.1027C111.008 40.1033 111.122 40.1267 111.166 40.1547C111.21 40.1828 111.386 40.8267 111.558 41.5857C111.88 43.01 111.984 43.3091 112.193 43.4217C112.26 43.4579 112.656 43.4875 113.074 43.4875C113.707 43.4875 113.839 43.4708 113.871 43.3864C113.932 43.2253 113.919 43.182 113.756 43.0269C113.64 42.9154 113.533 42.6153 113.306 41.7627C113.142 41.1478 112.967 40.5445 112.916 40.4221C112.812 40.1679 112.598 39.9162 112.433 39.8532C112.342 39.8185 112.384 39.7678 112.655 39.5887C113.312 39.1535 113.629 38.076 113.469 36.8205C113.385 36.156 113.229 35.7538 112.939 35.4488C112.49 34.9777 111.999 34.8667 110.355 34.8648C109.507 34.8637 109.279 34.8825 109.165 34.9629ZM110.737 38.888V36.1411H111.027C111.585 36.1411 111.737 36.3603 111.793 37.2432C111.838 37.9534 111.744 38.533 111.551 38.7402C111.44 38.8588 111.346 38.888 111.075 38.888H110.737Z" fill="#006666"/>
<path fill-rule="evenodd" clip-rule="evenodd" d="M115.606 34.9378C115.501 35.018 115.495 35.2783 115.511 39.2394L115.527 43.4556L116.791 43.4729C118.276 43.4933 118.504 43.4444 118.948 43.0103C119.677 42.2968 119.994 40.8843 119.917 38.7C119.842 36.5958 119.426 35.5358 118.494 35.0768C118.144 34.9046 118.095 34.8983 116.925 34.8757C115.987 34.8577 115.693 34.8716 115.606 34.9378ZM117.208 42.2099V36.205H117.435C117.6 36.205 117.712 36.2547 117.841 36.3847C118.143 36.6891 118.192 37.0857 118.192 39.2394C118.192 40.9348 118.178 41.2021 118.072 41.5576C117.934 42.0184 117.743 42.2099 117.422 42.2099H117.208Z" fill="#006666"/>
<path d="M51.8104 13.0032C51.7003 12.8923 51.7003 4.64329 51.8104 4.53245C51.9329 4.40903 53.2212 4.42896 53.3475 4.55615C53.436 4.64533 53.4472 5.11339 53.4472 8.74462C53.4472 11.4405 53.4248 12.8748 53.3815 12.9563C53.3225 13.0672 53.2429 13.0798 52.6012 13.0798C52.1299 13.0798 51.8605 13.0537 51.8104 13.0032Z" fill="#006666"/>
<path d="M55.2871 8.74462C55.2871 5.11339 55.2983 4.64533 55.3868 4.55615C55.5182 4.42392 56.6929 4.4098 56.7995 4.53922C56.8517 4.60259 57.82 7.98244 58.1938 9.40662C58.2215 9.51203 58.2318 8.49011 58.2167 7.13563C58.1915 4.88041 58.1982 4.66392 58.297 4.56439C58.4481 4.41229 59.5426 4.40584 59.6919 4.55615C59.7805 4.64533 59.7916 5.11339 59.7916 8.74462C59.7916 11.4405 59.7692 12.8748 59.7259 12.9563C59.6675 13.0662 59.5879 13.0798 59.0041 13.0798C58.5554 13.0798 58.3271 13.0545 58.2819 12.9997C58.2193 12.9238 57.6645 11.0077 57.1232 8.99791C56.987 8.49203 56.8679 8.07035 56.8585 8.06096C56.8491 8.0515 56.8514 9.11596 56.8636 10.4264C56.8794 12.1201 56.865 12.8481 56.8138 12.9444C56.7476 13.0691 56.6894 13.0798 56.0801 13.0798C55.4909 13.0798 55.4113 13.0663 55.3528 12.9563C55.3095 12.8748 55.2871 11.4405 55.2871 8.74462Z" fill="#006666"/>
<path d="M61.1239 5.15849C61.1239 4.78734 61.1499 4.63038 61.2236 4.55615C61.31 4.46921 61.588 4.45579 63.3046 4.45579C64.761 4.45579 65.3061 4.47611 65.362 4.53245C65.4094 4.58017 65.4381 4.81634 65.4381 5.15849C65.4381 5.50064 65.4094 5.73681 65.362 5.78453C65.3143 5.83257 65.0772 5.86119 64.7276 5.86119H64.1693V9.39385C64.1693 12.0563 64.1505 12.9454 64.0931 13.0032C63.9884 13.1086 62.6371 13.1086 62.5324 13.0032C62.475 12.9454 62.4563 12.0563 62.4563 9.39385V5.86119H61.8898C61.1586 5.86119 61.1239 5.82944 61.1239 5.15849Z" fill="#006666"/>
<path d="M66.91 13.0032C66.8 12.8923 66.8 4.64329 66.91 4.53245C67.0181 4.4236 69.9488 4.4236 70.0569 4.53245C70.1043 4.58017 70.133 4.81634 70.133 5.15849C70.133 5.50064 70.1043 5.73681 70.0569 5.78453C70.0066 5.83513 69.7369 5.86119 69.2638 5.86119H68.5469V7.84152H69.1369C69.5112 7.84152 69.7548 7.86957 69.8031 7.91818C69.8505 7.9659 69.8792 8.20207 69.8792 8.54422C69.8792 8.88637 69.8505 9.12254 69.8031 9.17026C69.7548 9.21887 69.5112 9.24692 69.1369 9.24692H68.5469V11.6744H69.2729C69.9512 11.6744 70.0054 11.6837 70.0977 11.8164C70.2106 11.9787 70.2332 12.6546 70.1346 12.916L70.0727 13.0798H68.5294C67.4137 13.0798 66.9651 13.0586 66.91 13.0032Z" fill="#006666"/>
<path d="M78.0127 13.0032C77.9027 12.8923 77.9027 4.64329 78.0127 4.53245C78.0993 4.44525 79.2502 4.42545 79.3807 4.50888C79.4444 4.54964 80.1938 7.10886 80.7494 9.18304C80.8372 9.51094 80.8439 9.36983 80.8493 7.07175C80.8535 5.24818 80.8748 4.58924 80.9312 4.53245C80.9798 4.48345 81.2273 4.45579 81.6164 4.45579C82.0055 4.45579 82.2529 4.48345 82.3016 4.53245C82.4116 4.64329 82.4116 12.8923 82.3016 13.0032C82.2523 13.0528 81.9961 13.0798 81.5742 13.0798C81.0189 13.0798 80.9142 13.0633 80.8637 12.968C80.7821 12.8143 79.5225 8.28384 79.5226 8.14496C79.5227 8.08344 79.5013 8.03317 79.4751 8.03317C79.449 8.0331 79.4357 9.12854 79.4456 10.4674C79.4588 12.2405 79.4437 12.9259 79.3902 12.9908C79.2944 13.1071 78.1264 13.1176 78.0127 13.0032Z" fill="#006666"/>
<path d="M89.2423 5.78453C89.1395 5.68098 89.1395 4.636 89.2423 4.53245C89.2983 4.47611 89.8433 4.45579 91.2998 4.45579C93.0163 4.45579 93.2943 4.46921 93.3807 4.55615C93.4536 4.62955 93.4804 4.78523 93.4804 5.1353C93.4804 5.84777 93.4669 5.86119 92.7486 5.86119H92.1481V9.39385C92.1481 12.0563 92.1293 12.9454 92.0719 13.0032C92.0218 13.0537 91.7524 13.0798 91.2811 13.0798C90.6394 13.0798 90.5598 13.0672 90.5008 12.9563C90.4578 12.8754 90.4351 11.6276 90.4351 9.34696V5.86119H89.8768C89.5271 5.86119 89.2901 5.83257 89.2423 5.78453Z" fill="#006666"/>
<path d="M94.8127 8.74589C94.8127 5.2234 94.8247 4.72263 94.9115 4.5978C95.0031 4.46601 95.0595 4.45579 95.6919 4.45579C96.1374 4.45579 96.3998 4.48237 96.4496 4.53245C96.5597 4.64329 96.5597 12.8923 96.4496 13.0032C96.3993 13.0538 96.1292 13.0798 95.6549 13.0798C94.9421 13.0798 94.936 13.0785 94.8746 12.916C94.8368 12.8158 94.8127 11.1943 94.8127 8.74589Z" fill="#006666"/>
<path d="M104.469 13.0032C104.359 12.8923 104.359 4.64329 104.469 4.53245C104.583 4.41734 105.753 4.4289 105.869 4.54631C105.919 4.59608 106.033 4.90507 106.124 5.23304C106.215 5.56095 106.505 6.60177 106.768 7.54594C107.032 8.49005 107.248 9.31655 107.248 9.38254C107.248 9.44847 107.269 9.50245 107.295 9.50251C107.321 9.50251 107.334 8.40783 107.324 7.06983C107.309 5.27188 107.324 4.61345 107.379 4.54644C107.476 4.42864 108.643 4.41676 108.758 4.53245C108.815 4.59052 108.834 5.62687 108.834 8.80569C108.834 12.5735 108.824 13.0062 108.733 13.041C108.588 13.0973 107.484 13.0868 107.392 13.0283C107.335 12.9918 106.261 9.31048 105.962 8.1256C105.944 8.05719 105.927 9.12644 105.923 10.5017C105.916 12.7186 105.904 13.0067 105.815 13.041C105.627 13.1137 104.549 13.0834 104.469 13.0032Z" fill="#006666"/>
<path d="M116.777 13.0032C116.667 12.8923 116.667 4.64329 116.777 4.53245C116.882 4.42705 118.233 4.42705 118.338 4.53245C118.395 4.5902 118.414 5.47931 118.414 8.14177V11.6744H119.084C119.998 11.6744 120 11.6756 120 12.3666C120 12.7169 119.972 12.9552 119.924 13.0032C119.816 13.112 116.885 13.112 116.777 13.0032Z" fill="#006666"/>
<path fill-rule="evenodd" clip-rule="evenodd" d="M71.7984 4.52804C71.6855 4.64348 71.6824 12.8895 71.7952 13.0032C71.8454 13.0537 72.1148 13.0798 72.5861 13.0798C73.2277 13.0798 73.3074 13.0672 73.3664 12.9563C73.4066 12.8807 73.4321 12.223 73.4321 11.2634V9.69409H73.6147C73.715 9.69409 73.8259 9.73005 73.8609 9.77394C73.8959 9.81789 74.0594 10.4575 74.2242 11.1953C74.389 11.9331 74.5642 12.6156 74.6137 12.7119C74.7824 13.0405 74.9285 13.0858 75.7557 13.066C76.493 13.0483 76.5096 13.0447 76.5303 12.8972C76.5433 12.8044 76.4926 12.6819 76.3979 12.5778C76.2855 12.4544 76.1623 12.1001 75.9391 11.2592C75.5988 9.97728 75.4831 9.69677 75.2109 9.49414L75.0241 9.35507L75.297 9.1808C75.6295 8.96846 75.8114 8.72041 75.9874 8.23944C76.1692 7.74225 76.1861 6.33634 76.0169 5.78555C75.8558 5.2616 75.5668 4.90763 75.1133 4.67938L74.7327 4.48773L73.3052 4.46736C72.2136 4.45171 71.8591 4.46601 71.7984 4.52804ZM73.4321 8.48034V5.66954L73.5748 5.66993C73.6533 5.67012 73.8246 5.70021 73.9554 5.73675C74.3169 5.83781 74.4058 6.06229 74.4353 6.94884C74.4745 8.13059 74.3152 8.48034 73.7373 8.48034H73.4321Z" fill="#006666"/>
<path fill-rule="evenodd" clip-rule="evenodd" d="M85.4878 4.55002C85.4149 4.6385 83.8391 12.5124 83.8376 12.7955C83.8363 13.0368 83.9578 13.0798 84.6404 13.0798C85.1966 13.0798 85.3004 13.0635 85.3513 12.9676C85.3841 12.9059 85.4585 12.5251 85.5166 12.1212C85.532 12.014 85.5452 11.918 85.557 11.8319C85.6156 11.404 85.6405 11.2228 85.7418 11.1475C85.8163 11.0922 85.9322 11.0941 86.1332 11.0975C86.1881 11.0985 86.2495 11.0995 86.3181 11.0995C86.6633 11.0995 86.9457 11.124 86.9457 11.154C86.9457 11.3909 87.2199 12.9317 87.2735 12.997C87.3795 13.1254 88.6166 13.112 88.7244 12.9812C88.7918 12.8995 88.667 12.1731 87.9974 8.74934C87.5529 6.47612 87.1595 4.58004 87.1231 4.53596C87.0212 4.41229 85.5911 4.42462 85.4878 4.55002ZM86.021 8.70041C86.1055 8.14017 86.1937 7.45887 86.2168 7.18635C86.2398 6.91383 86.2814 6.705 86.3091 6.72231C86.3369 6.73956 86.3799 6.97688 86.4048 7.24972C86.4296 7.5225 86.5187 8.21791 86.6026 8.79515C86.6866 9.37232 86.7553 9.86817 86.7553 9.89711C86.7553 9.92598 86.5555 9.94962 86.3112 9.94962C85.9254 9.94962 85.8671 9.93448 85.8671 9.83431C85.8671 9.77088 85.9363 9.26059 86.021 8.70041Z" fill="#006666"/>
<path fill-rule="evenodd" clip-rule="evenodd" d="M99.7539 4.48013C98.7733 4.83289 98.3713 5.70851 98.2393 7.77841C98.1203 9.64714 98.3233 11.3769 98.7585 12.1989C99.1413 12.9222 99.6437 13.1753 100.612 13.1326C101.108 13.1108 101.24 13.0805 101.496 12.9296C102.06 12.5966 102.46 11.7999 102.609 10.7112C102.731 9.82096 102.762 8.54071 102.684 7.59519C102.526 5.6882 102.077 4.75131 101.193 4.48588C100.811 4.37109 100.065 4.36808 99.7539 4.48013ZM99.9709 9.21498C99.9304 6.75879 100.023 5.85704 100.325 5.77572C100.382 5.76064 100.433 5.74493 100.439 5.74084C100.446 5.73675 100.523 5.7609 100.611 5.7945C100.905 5.90744 100.935 6.17862 100.935 8.76781C100.935 11.3409 100.905 11.6181 100.615 11.7514C100.371 11.8633 100.175 11.7376 100.081 11.4085C100.03 11.2287 99.9914 10.4582 99.9709 9.21498Z" fill="#006666"/>
<path fill-rule="evenodd" clip-rule="evenodd" d="M111.955 4.53686C111.918 4.58145 111.524 6.47669 111.079 8.74839C110.401 12.208 110.283 12.8952 110.353 12.9793C110.46 13.1095 111.698 13.1271 111.802 13C111.838 12.9561 111.931 12.5105 112.008 12.0098L112.149 11.0995H113.392L113.426 11.2752C113.446 11.3718 113.509 11.7814 113.567 12.1855C113.626 12.5895 113.702 12.957 113.738 13.002C113.784 13.0615 113.983 13.0791 114.467 13.0659C115.015 13.0511 115.145 13.0284 115.202 12.9381C115.254 12.8539 115.083 11.8733 114.467 8.73325C114.025 6.48097 113.63 4.59716 113.588 4.54702C113.487 4.4236 112.055 4.41478 111.955 4.53686ZM112.479 8.8214C112.564 8.26487 112.654 7.55808 112.678 7.25062C112.702 6.94322 112.744 6.69165 112.771 6.69165C112.798 6.69165 112.839 6.88566 112.862 7.12285C112.885 7.36004 112.973 8.04767 113.058 8.65097C113.142 9.25426 113.212 9.7933 113.212 9.84875C113.212 9.93103 113.13 9.94962 112.767 9.94962C112.523 9.94962 112.323 9.92342 112.323 9.89142C112.323 9.85942 112.393 9.37788 112.479 8.8214Z" fill="#006666"/>
</svg>
